# xmcd
#
# Track frame offsets:
#	150
#	21467
#	37852
#	54384
#	69917
#	97548
#	115575
#	130062
#	149216
#	167382
#	183481
#	202000
#	220805
#	236471
#	251951
#	268953
#	284790
#	299669
#	312643
#	331150
#	347990
#
# Disc length: 4796 seconds
#
# Revision: 1
# Processed by: cddbd v1.5.2PL0 Copyright (c) Steve Scherf et al.
# Submitted via: EasyCDDAExtractor 6.0.0.1
#
DISCID=5012ba15
DTITLE=Various Artist - VA
DYEAR=2004
DGENRE=Blues
TTITLE0=Celine Dion - My Heart Will Go On
TTITLE1=Shania Twain - You're Still The One
TTITLE2=Ronan Keating - If Tommorow Never Comes
TTITLE3=Mariah Carey - We Belong Together
TTITLE4=cc - I'm Not In Love
TTITLE5=Daniel Powter - Bad Day
TTITLE6=Ashanti - Only You
TTITLE7=Savage Garden - I Knew I Loved You
TTITLE8=The Police - Every Breath You Take
TTITLE9=Pussycat Dolls - Stickwitu
TTITLE10=Daniel Bedingfield - If You're Not The One
TTITLE11=Girls Alound - See The Day
TTITLE12=Barry White - You're The First The Last My Everything
TTITLE13=Cat Stevens - Wild World
TTITLE14=Lionel Richie - My Destiny
TTITLE15=Mis- Teeq - One Night Stand
TTITLE16=Boyzone - Baby Can I Hold  You Tonight
TTITLE17=Stevie Wonder - Signed Sealed Delivered
TTITLE18=Boiz II Men - I'll Make Love To You
TTITLE19=Baby Goodbye - Baby Goodbye
TTITLE20=Dusty Springfield - I Onli Want To Be With You
EXTD=
EXTT0=
EXTT1=
EXTT2=
EXTT3=
EXTT4=
EXTT5=
EXTT6=
EXTT7=
EXTT8=
EXTT9=
EXTT10=
EXTT11=
EXTT12=
EXTT13=
EXTT14=
EXTT15=
EXTT16=
EXTT17=
EXTT18=
EXTT19=
EXTT20=
PLAYORDER=
